<svg width="17" height="20" viewBox="0 0 17 20" fill="none" xmlns="http://www.w3.org/2000/svg">
<path fill-rule="evenodd" clip-rule="evenodd" d="M6.5 4C6.5 2.89543 7.39543 2 8.5 2C9.60457 2 10.5 2.89543 10.5 4C10.5 5.10457 9.60457 6 8.5 6C7.39543 6 6.5 5.10457 6.5 4ZM8.5 0C6.29086 0 4.5 1.79086 4.5 4C4.5 6.20914 6.29086 8 8.5 8C10.7091 8 12.5 6.20914 12.5 4C12.5 1.79086 10.7091 0 8.5 0ZM1 9.5C0.447715 9.5 0 9.94771 0 10.5V19.5H2V11.5H15V19.5H17V10.5C17 9.94771 16.5523 9.5 16 9.5H1Z" fill="#8A7A75"/>
</svg>
