<svg width="25" height="16" viewBox="0 0 25 16" fill="none" xmlns="http://www.w3.org/2000/svg">
<path fill-rule="evenodd" clip-rule="evenodd" d="M10.7791 8.61222C11.2564 8.96449 11.8317 9.14205 12.505 9.14489C13.1754 9.14489 13.7493 8.96875 14.2266 8.61648C14.7038 8.26137 15.0689 7.74858 15.3217 7.07813C15.5746 6.40483 15.701 5.59233 15.701 4.64063C15.701 3.69461 15.5732 2.88779 15.3175 2.22017C15.0646 1.54972 14.6996 1.03836 14.2223 0.686082C13.745 0.330969 13.1726 0.153412 12.505 0.153412C11.8374 0.153412 11.2635 0.329548 10.7834 0.681821C10.3061 1.03409 9.93963 1.54546 9.68395 2.21591C9.43111 2.88637 9.30469 3.69461 9.30469 4.64063C9.30469 5.58949 9.43111 6.40057 9.68395 7.07387C9.93679 7.74716 10.3018 8.25995 10.7791 8.61222ZM13.8899 7.14205C13.5575 7.71875 13.0959 8.0071 12.505 8.0071C12.1101 8.0071 11.772 7.87926 11.4908 7.62358C11.2095 7.36506 10.9922 6.9858 10.8388 6.4858C10.6882 5.98296 10.6129 5.3679 10.6129 4.64063C10.6158 3.55256 10.7848 2.71875 11.12 2.13921C11.4553 1.55966 11.9169 1.26989 12.505 1.26989C12.8942 1.26989 13.2294 1.40057 13.5107 1.66193C13.7947 1.92046 14.0121 2.30114 14.1626 2.80398C14.3161 3.30398 14.3928 3.9162 14.3928 4.64063C14.3928 5.73154 14.2251 6.56534 13.8899 7.14205ZM0.0297852 1.24252L3.52979 15.2425C3.64108 15.6877 4.04106 16 4.49993 16H20.4999C20.9588 16 21.3588 15.6877 21.4701 15.2425L24.9701 1.24252L23.0298 0.757446L19.7192 14H5.2807L1.97007 0.757446L0.0297852 1.24252Z" fill="#8A7A75"/>
</svg>
