<?xml version="1.0" encoding="utf-8"?>
<!-- Generator: Adobe Illustrator 26.3.1, SVG Export Plug-In . SVG Version: 6.00 Build 0)  -->
<svg version="1.1" id="Capa_1" xmlns="http://www.w3.org/2000/svg" xmlns:xlink="http://www.w3.org/1999/xlink" x="0px" y="0px"
	 viewBox="0 0 17 14.7" style="enable-background:new 0 0 17 14.7;" xml:space="preserve">
<style type="text/css">
	.st0{fill:#8A7A75;}
</style>
<path class="st0" d="M17,7.3L17,7.3c0-0.6-0.4-1-1-1H1c-0.6,0-1,0.4-1,1v0c0,0.6,0.4,1,1,1h15C16.6,8.3,17,7.9,17,7.3z"/>
<path class="st0" d="M17,1L17,1c0-0.6-0.4-1-1-1H1C0.4,0,0,0.4,0,1v0c0,0.6,0.4,1,1,1h15C16.6,2,17,1.6,17,1z"/>
<path class="st0" d="M17,13.7L17,13.7c0-0.6-0.4-1-1-1H1c-0.6,0-1,0.4-1,1v0c0,0.6,0.4,1,1,1h15C16.6,14.7,17,14.3,17,13.7z"/>
</svg>
