<?xml version="1.0" encoding="utf-8"?>
<!-- Generator: Adobe Illustrator 26.3.1, SVG Export Plug-In . SVG Version: 6.00 Build 0)  -->
<svg version="1.1" id="Capa_1" xmlns="http://www.w3.org/2000/svg" xmlns:xlink="http://www.w3.org/1999/xlink" x="0px" y="0px"
	 viewBox="0 0 72.1 18.2" style="enable-background:new 0 0 72.1 18.2;" xml:space="preserve">
<style type="text/css">
	.st0{fill:#FCD7A2;}
</style>
<g>
	<g>
		<g>
			<path class="st0" d="M41.8,3c-1.6,1.6-2.6,3.6-2.9,5.7c0,0.2,0.2,0.4,0.4,0.4c2.1-0.3,4.1-1.3,5.7-2.9s2.6-3.6,2.9-5.7
				c0-0.2-0.2-0.4-0.4-0.4C45.5,0.4,43.4,1.3,41.8,3z"/>
			<path class="st0" d="M32.7,12.1c-1.6,1.6-2.6,3.6-2.9,5.7c0,0.2,0.2,0.4,0.4,0.4c2.1-0.3,4.1-1.3,5.7-2.9s2.6-3.6,2.9-5.7
				c0-0.2-0.2-0.4-0.4-0.4C36.4,9.5,34.3,10.4,32.7,12.1z"/>
			<path class="st0" d="M32.7,6.1c1.6,1.6,3.6,2.6,5.7,2.9c0.2,0,0.4-0.2,0.4-0.4c-0.3-2.1-1.3-4.1-2.9-5.7S32.3,0.3,30.2,0
				c-0.2,0-0.4,0.2-0.4,0.4C30.2,2.5,31.1,4.5,32.7,6.1z"/>
			<path class="st0" d="M41.8,15.3c1.6,1.6,3.6,2.6,5.7,2.9c0.2,0,0.4-0.2,0.4-0.4c-0.3-2.1-1.3-4.1-2.9-5.7s-3.6-2.6-5.7-2.9
				c-0.2,0-0.4,0.2-0.4,0.4C39.3,11.6,40.2,13.6,41.8,15.3z"/>
		</g>
		<path class="st0" d="M19.8,14.4L22.4,6c0.2-0.7-0.7-1.1-1.1-0.5c-2.9,4.3-7.4,8.2-9.5-4c-0.1-0.7-1.1-0.7-1.2,0
			C8.5,13.7,4,9.7,1.1,5.5C0.7,4.9-0.2,5.4,0,6l2.6,8.4c0.5,1.6,2,2.7,3.7,2.7h9.6C17.8,17.1,19.3,16,19.8,14.4z"/>
		<path class="st0" d="M72.1,1.9c0-0.4-0.3-0.7-0.7-0.6c-2.5,0.4-5,1.3-7.2,2.8C62,2.6,59.5,1.7,57,1.3c-0.4-0.1-0.7,0.3-0.6,0.6
			c0.4,2.5,1.3,5,2.8,7.2c-1.5,2.2-2.4,4.7-2.8,7.2c-0.1,0.4,0.3,0.7,0.6,0.6c2.5-0.4,5-1.3,7.2-2.8c2.2,1.5,4.7,2.4,7.2,2.8
			c0.4,0.1,0.7-0.3,0.6-0.6c-0.4-2.5-1.3-5-2.8-7.2C70.7,6.9,71.7,4.4,72.1,1.9z M64.2,11.2c-1.2,0-2.1-0.9-2.1-2.1
			C62.1,7.9,63,7,64.2,7c1.2,0,2.1,0.9,2.1,2.1S65.4,11.2,64.2,11.2z"/>
	</g>
</g>
</svg>
