<?xml version="1.0" encoding="utf-8"?>
<!-- Generator: Adobe Illustrator 26.3.1, SVG Export Plug-In . SVG Version: 6.00 Build 0)  -->
<svg version="1.1" id="Capa_1" xmlns="http://www.w3.org/2000/svg" xmlns:xlink="http://www.w3.org/1999/xlink" x="0px" y="0px"
	 viewBox="0 0 314.2 27.2" style="enable-background:new 0 0 314.2 27.2;" xml:space="preserve">
<style type="text/css">
	.st0{fill:#FCD7A2;}
</style>
<g>
	<g>
		<path class="st0" d="M95.2,5.7h3.3v7c1-1.2,4.3-4.8,6.2-7h4.1l-6.3,6.5l6.5,9.2h-4.1l-4.8-7L98.6,16v5.4h-3.3L95.2,5.7L95.2,5.7z"
			/>
		<path class="st0" d="M115.9,5.7v15.7h-3.4V5.7H115.9z"/>
		<path class="st0" d="M121.4,21.4V5.7h4.2c2,3.5,5.6,9.9,6.3,11.6h0c-0.2-1.6-0.2-4.4-0.2-6.9V5.7h3.1v15.7h-4
			c-1.7-3.1-5.7-10.4-6.5-12.2h0c0.1,1.4,0.2,4.6,0.2,7.4v4.8L121.4,21.4L121.4,21.4z"/>
		<path class="st0" d="M153.9,21.4h-2.5c-0.1-0.5-0.2-1-0.3-1.5c-0.9,1.2-2.4,1.8-4.6,1.8c-4.6,0-7.1-3.4-7.1-7.9
			c0-4.7,2.7-8.3,7.7-8.3c4,0,6.4,2.3,6.8,5h-3.4c-0.3-1.1-1.1-2.3-3.4-2.3c-3.2,0-4.1,2.7-4.1,5.5c0,2.7,1.1,5.4,4.2,5.4
			c2.9,0,3.4-2,3.4-3.4v-0.1h-3.4v-2.8h6.8L153.9,21.4L153.9,21.4z"/>
		<path class="st0" d="M180.7,13.5c0,4.4-2.6,8.1-7.7,8.1c-4.9,0-7.5-3.6-7.5-8.1c0-4.6,2.9-8.1,7.7-8.1
			C177.8,5.5,180.7,8.7,180.7,13.5z M169,13.5c0,3.1,1.3,5.4,4.1,5.4c3,0,4.1-2.5,4.1-5.3c0-3-1.2-5.3-4.1-5.3
			C170.2,8.2,169,10.4,169,13.5z"/>
		<path class="st0" d="M185.4,5.7h11v2.8h-7.6v3.9h7.2v2.8h-7.2v6.3h-3.3L185.4,5.7L185.4,5.7z"/>
		<path class="st0" d="M221.1,16.6c-0.6,2.9-2.8,5.1-6.8,5.1c-5,0-7.3-3.5-7.3-8c0-4.3,2.4-8.2,7.5-8.2c4.2,0,6.2,2.4,6.6,5.1h-3.4
			c-0.3-1.2-1.2-2.4-3.3-2.4c-2.8,0-3.9,2.5-3.9,5.4c0,2.7,0.9,5.4,4,5.4c2.2,0,2.9-1.5,3.2-2.4L221.1,16.6L221.1,16.6z"/>
		<path class="st0" d="M225.4,5.7h3.4v12.9h7.8l-0.4,2.8h-10.8V5.7z"/>
		<path class="st0" d="M254.5,13.5c0,4.4-2.6,8.1-7.7,8.1c-4.9,0-7.5-3.6-7.5-8.1c0-4.6,2.9-8.1,7.7-8.1
			C251.6,5.5,254.5,8.7,254.5,13.5z M242.8,13.5c0,3.1,1.3,5.4,4.1,5.4c3,0,4.1-2.5,4.1-5.3c0-3-1.2-5.3-4.1-5.3
			C244,8.2,242.8,10.4,242.8,13.5z"/>
		<path class="st0" d="M262.6,21.4l-5.5-15.7h3.6l2.3,7.2c0.7,2.2,1.2,4.1,1.6,5.7h0c0.3-1.5,0.9-3.4,1.7-5.6l2.5-7.3h3.5l-5.7,15.7
			H262.6z"/>
		<path class="st0" d="M286.7,14.6h-7.5v4h8.3l-0.4,2.8h-11.2V5.7H287v2.8h-7.8v3.4h7.5V14.6z"/>
		<path class="st0" d="M294.2,16.8c0.4,1.6,1.5,2.3,3.3,2.3s2.6-0.7,2.6-1.9c0-1.3-0.8-1.8-3.4-2.5c-4.3-1-5.3-2.6-5.3-4.7
			c0-2.7,2-4.6,5.8-4.6c4.2,0,5.8,2.2,6,4.5h-3.4c-0.2-1-0.7-2-2.7-2c-1.4,0-2.2,0.6-2.2,1.7c0,1.1,0.7,1.5,3.2,2.1
			c4.6,1.1,5.6,2.8,5.6,5c0,2.9-2.2,4.8-6.3,4.8c-4,0-6.1-2-6.5-4.8L294.2,16.8L294.2,16.8z"/>
	</g>
	<g>
		<g>
			<path class="st0" d="M44.7,7.5c-1.6,1.6-2.6,3.6-2.9,5.7c0,0.2,0.2,0.4,0.4,0.4c2.1-0.3,4.1-1.3,5.7-2.9s2.6-3.6,2.9-5.7
				c0-0.2-0.2-0.4-0.4-0.4C48.4,4.9,46.3,5.8,44.7,7.5z"/>
			<path class="st0" d="M35.6,16.6c-1.6,1.6-2.6,3.6-2.9,5.7c0,0.2,0.2,0.4,0.4,0.4c2.1-0.3,4.1-1.3,5.7-2.9s2.6-3.6,2.9-5.7
				c0-0.2-0.2-0.4-0.4-0.4C39.3,14,37.2,14.9,35.6,16.6z"/>
			<path class="st0" d="M35.6,10.6c1.6,1.6,3.6,2.6,5.7,2.9c0.2,0,0.4-0.2,0.4-0.4c-0.3-2.1-1.3-4.1-2.9-5.7s-3.6-2.6-5.7-2.9
				c-0.2,0-0.4,0.2-0.4,0.4C33.1,7,34,9,35.6,10.6z"/>
			<path class="st0" d="M44.7,19.8c1.6,1.6,3.6,2.6,5.7,2.9c0.2,0,0.4-0.2,0.4-0.4c-0.3-2.1-1.3-4.1-2.9-5.7s-3.6-2.6-5.7-2.9
				c-0.2,0-0.4,0.2-0.4,0.4C42.2,16.1,43.1,18.1,44.7,19.8z"/>
		</g>
		<path class="st0" d="M22.7,18.9l2.6-8.4c0.2-0.7-0.7-1.1-1.1-0.5c-2.9,4.3-7.4,8.2-9.5-4c-0.1-0.7-1.1-0.7-1.2,0
			c-2.1,12.2-6.6,8.2-9.5,4c-0.4-0.6-1.3-0.1-1.1,0.5l2.6,8.4c0.5,1.6,2,2.7,3.7,2.7h9.6C20.7,21.6,22.2,20.5,22.7,18.9z"/>
		<path class="st0" d="M75,6.4C75,6,74.7,5.7,74.3,5.8c-2.5,0.4-5,1.3-7.2,2.8c-2.2-1.5-4.7-2.4-7.2-2.8c-0.4-0.1-0.7,0.3-0.6,0.6
			c0.4,2.5,1.3,5,2.8,7.2c-1.5,2.2-2.4,4.7-2.8,7.2c-0.1,0.4,0.3,0.7,0.6,0.6c2.5-0.4,5-1.3,7.2-2.8c2.2,1.5,4.7,2.4,7.2,2.8
			c0.4,0.1,0.7-0.3,0.6-0.6c-0.4-2.5-1.3-5-2.8-7.2C73.6,11.4,74.6,8.9,75,6.4z M67.1,15.7c-1.2,0-2.1-0.9-2.1-2.1s0.9-2.1,2.1-2.1
			s2.1,0.9,2.1,2.1S68.3,15.7,67.1,15.7z"/>
	</g>
	<g>
		<path class="st0" d="M311.2,7.3c0,1-0.8,1.8-1.9,1.8c-1,0-1.9-0.8-1.9-1.8c0-1,0.8-1.8,1.9-1.8C310.4,5.5,311.2,6.3,311.2,7.3z
			 M307.9,7.3c0,0.8,0.6,1.4,1.4,1.4c0.8,0,1.4-0.6,1.4-1.4c0-0.8-0.6-1.5-1.4-1.5C308.5,5.8,307.9,6.5,307.9,7.3z M309,8.2h-0.4
			V6.4c0.2,0,0.4-0.1,0.7-0.1c0.3,0,0.5,0.1,0.6,0.1c0.1,0.1,0.2,0.2,0.2,0.4c0,0.2-0.1,0.3-0.4,0.4v0c0.2,0.1,0.3,0.2,0.3,0.4
			c0.1,0.3,0.1,0.4,0.1,0.5h-0.5c-0.1-0.1-0.1-0.2-0.1-0.4c0-0.2-0.1-0.3-0.4-0.3H309L309,8.2L309,8.2z M309,7.2h0.2
			c0.2,0,0.4-0.1,0.4-0.3c0-0.2-0.1-0.3-0.4-0.3c-0.1,0-0.2,0-0.2,0V7.2z"/>
	</g>
</g>
</svg>
